<svg id="Vrstva_1" data-name="Vrstva 1" xmlns="http://www.w3.org/2000/svg" viewBox="0 0 349.13 304.21"><defs><style>.cls-1{fill:#f472b6;}</style></defs><path class="cls-1" d="M387.69,432H322.26a7,7,0,0,1-6.06-3.5l-23.1-40a7,7,0,0,0-12.12,0l-90.65,157a7,7,0,0,1-6.06,3.5H120.12a7,7,0,0,1-6.06-10.5L281.62,248.29a7,7,0,0,1,12.12,0l100,173.21A7,7,0,0,1,387.69,432Z" transform="translate(-113.11 -244.79)"/><path class="cls-1" d="M455.24,549H389.81a7,7,0,0,1-6.06-3.5l-33.49-58a7,7,0,0,1,6.06-10.5h65.43a7,7,0,0,1,6.06,3.5l33.49,58A7,7,0,0,1,455.24,549Z" transform="translate(-113.11 -244.79)"/></svg>