<?xml version="1.0" standalone="no"?>
<!DOCTYPE svg PUBLIC "-//W3C//DTD SVG 20010904//EN"
 "http://www.w3.org/TR/2001/REC-SVG-20010904/DTD/svg10.dtd">
<svg version="1.0" xmlns="http://www.w3.org/2000/svg"
 width="698.000000pt" height="698.000000pt" viewBox="0 0 698.000000 698.000000"
 preserveAspectRatio="xMidYMid meet">
<metadata>
Created by potrace 1.14, written by Peter Selinger 2001-2017
</metadata>
<g transform="translate(0.000000,698.000000) scale(0.100000,-0.100000)"
fill="#000000" stroke="none">
<path d="M3425 6511 c-34 -21 -56 -45 -76 -82 -25 -48 -51 -93 -104 -184 -162
-278 -255 -439 -303 -525 -13 -25 -32 -53 -41 -64 -9 -10 -15 -21 -15 -25 1
-3 -15 -35 -36 -71 -92 -157 -184 -317 -199 -345 -9 -16 -18 -32 -21 -35 -3
-3 -11 -16 -18 -29 -21 -36 -50 -87 -73 -128 -12 -21 -33 -58 -47 -83 -14 -25
-33 -57 -43 -72 -11 -14 -19 -29 -19 -32 0 -3 -15 -29 -32 -58 -35 -57 -47
-77 -93 -163 -16 -30 -33 -55 -37 -55 -4 0 -8 -4 -8 -10 0 -5 -22 -48 -50 -96
-27 -48 -50 -91 -50 -95 0 -5 -4 -9 -9 -9 -5 0 -12 -9 -16 -19 -5 -17 -124
-225 -240 -421 -18 -30 -47 -82 -65 -115 -18 -33 -39 -67 -46 -76 -8 -8 -14
-19 -14 -23 0 -3 -32 -61 -72 -129 -39 -67 -78 -135 -86 -152 -9 -16 -26 -44
-39 -61 -12 -17 -21 -33 -18 -36 3 -3 -1 -11 -10 -18 -8 -7 -15 -18 -15 -25 0
-7 -7 -18 -15 -25 -8 -7 -13 -16 -10 -20 3 -5 1 -10 -3 -12 -5 -1 -21 -25 -37
-53 -55 -101 -218 -381 -236 -407 -11 -15 -19 -29 -19 -32 0 -3 -63 -113 -140
-246 -77 -133 -140 -246 -140 -251 0 -5 -5 -9 -11 -9 -5 0 -7 -4 -4 -10 3 -5
2 -10 -2 -10 -5 0 -20 -22 -34 -50 -13 -27 -27 -50 -31 -50 -5 0 -8 -5 -8 -10
0 -14 -139 -253 -152 -261 -5 -3 -9 -9 -8 -13 1 -4 -20 -45 -46 -92 -27 -47
-55 -97 -63 -112 -8 -15 -17 -29 -20 -32 -3 -3 -15 -23 -26 -45 -11 -22 -22
-42 -25 -45 -6 -5 -68 -112 -125 -215 -16 -27 -39 -67 -52 -87 -12 -21 -23
-42 -23 -48 0 -5 -4 -10 -8 -10 -4 0 -13 -12 -20 -27 -6 -16 -23 -46 -37 -68
-13 -22 -31 -53 -40 -70 -8 -16 -26 -48 -40 -70 -14 -22 -28 -47 -32 -55 -5
-8 -34 -61 -67 -118 -54 -95 -58 -106 -53 -147 4 -24 17 -56 29 -71 49 -56 22
-54 748 -54 790 0 719 -10 791 116 36 63 56 99 86 149 16 28 32 57 36 65 4 8
16 29 27 45 11 17 24 39 30 50 5 11 23 43 39 70 16 28 36 61 44 75 25 45 59
104 78 135 11 17 22 37 26 45 4 8 24 43 45 78 21 34 38 64 38 66 0 2 18 34 40
70 22 36 40 70 40 75 0 5 3 11 8 13 4 2 18 23 31 48 14 25 50 88 81 140 31 52
59 102 63 110 4 8 18 33 32 55 14 22 30 52 36 67 6 16 15 28 20 28 5 0 9 4 9
9 0 7 51 98 100 181 52 87 110 193 110 200 0 6 4 10 9 10 5 0 12 8 15 18 3 9
12 26 19 37 25 41 182 316 196 342 8 16 17 30 20 33 3 3 15 23 26 45 11 22 23
42 26 45 3 3 19 30 36 60 16 30 42 74 56 97 15 24 27 45 27 48 0 2 26 49 58
102 32 54 61 105 65 113 4 8 20 35 35 60 15 25 63 109 107 187 86 151 115 181
181 187 54 5 108 -27 144 -86 17 -27 30 -50 30 -53 0 -2 25 -45 55 -96 30 -50
55 -93 55 -94 0 -1 43 -75 95 -164 52 -89 95 -164 95 -166 0 -3 11 -24 26 -46
14 -22 33 -55 44 -73 10 -18 24 -44 32 -57 21 -39 51 -70 82 -86 24 -13 124
-15 705 -14 372 0 686 2 698 5 60 13 98 66 97 136 0 39 -14 69 -89 200 -49 85
-95 163 -103 173 -8 9 -12 17 -8 17 4 0 -2 12 -13 26 -12 15 -21 32 -21 40 0
7 -4 14 -8 16 -4 2 -23 30 -41 63 -19 33 -42 74 -52 91 -9 17 -36 62 -58 99
-23 37 -41 69 -41 71 0 3 -11 21 -23 42 -13 20 -35 57 -49 82 -59 105 -71 126
-89 152 -11 14 -19 29 -19 32 0 4 -21 43 -47 87 -89 150 -114 194 -120 212 -3
9 -9 17 -14 17 -5 0 -9 4 -9 9 0 5 -20 44 -45 85 -25 42 -45 81 -45 86 0 6 -4
10 -8 10 -4 0 -13 12 -20 28 -6 15 -20 41 -30 57 -10 17 -30 51 -45 77 -14 25
-37 64 -51 87 -14 22 -26 45 -26 51 0 5 -5 10 -12 10 -6 0 -8 3 -5 7 4 3 1 13
-6 22 -21 25 -97 158 -97 170 0 6 -4 11 -10 11 -5 0 -10 4 -10 9 0 10 -193
349 -210 368 -5 7 -10 15 -10 18 0 3 -18 35 -40 71 -22 36 -40 68 -40 71 0 9
-75 128 -82 131 -5 2 -8 12 -8 22 0 9 -6 22 -13 28 -7 6 -24 33 -37 61 -14 28
-29 51 -33 51 -5 0 -6 4 -3 9 3 5 -1 14 -9 21 -8 7 -15 19 -15 26 0 8 -4 14
-10 14 -5 0 -10 4 -10 10 0 5 -20 44 -45 86 -25 41 -45 78 -45 80 0 2 -11 23
-26 45 -26 42 -35 58 -104 179 -23 41 -53 90 -67 108 -46 61 -120 79 -178 43z"/>
<path d="M4813 1879 c-42 -12 -82 -66 -87 -116 -5 -48 5 -71 135 -291 27 -45
49 -87 49 -92 0 -6 3 -10 8 -10 4 0 12 -10 18 -23 21 -42 59 -112 64 -117 3
-3 16 -25 29 -50 13 -25 30 -52 37 -61 8 -8 14 -18 14 -21 0 -4 20 -41 45 -82
25 -42 45 -81 45 -86 0 -6 5 -10 10 -10 6 0 10 -4 10 -10 0 -5 36 -70 80 -146
44 -75 80 -138 80 -139 0 -18 85 -135 110 -152 l32 -22 688 -1 c770 0 738 -3
779 70 39 70 29 100 -118 348 -17 29 -31 55 -31 58 0 3 -9 18 -19 32 -26 37
-81 133 -88 155 -3 9 -9 17 -14 17 -5 0 -9 4 -9 8 0 5 -48 91 -107 193 -58
101 -111 194 -117 206 -6 13 -14 23 -18 23 -5 0 -8 5 -8 11 0 6 -22 48 -50 95
-27 47 -50 89 -50 94 0 6 -4 10 -10 10 -5 0 -10 5 -10 12 0 19 -50 77 -80 93
-24 12 -128 14 -706 14 -390 0 -693 -5 -711 -10z"/>
</g>
</svg>
